{
    "asset" : {
        "generator" : "Khronos glTF Blender I/O v3.2.43",
        "version" : "2.0"
    },
    "scene" : 0,
    "scenes" : [
        {
            "name" : "Scene",
            "nodes" : [
                0
            ]
        }
    ],
    "nodes" : [
        {
            "mesh" : 0,
            "name" : "Cube.034",
            "scale" : [
                1.0099999904632568,
                1.0099999904632568,
                1.0099999904632568
            ]
        }
    ],
    "materials" : [
        {
            "alphaMode" : "BLEND",
            "doubleSided" : true,
            "name" : "6",
            "pbrMetallicRoughness" : {
                "baseColorFactor" : [
                    0.8000000715255737,
                    0,
                    0.021063925698399544,
                    0
                ],
                "metallicFactor" : 0,
                "roughnessFactor" : 0.5
            }
        },
        {
            "alphaMode" : "BLEND",
            "doubleSided" : true,
            "name" : "1",
            "pbrMetallicRoughness" : {
                "baseColorFactor" : [
                    0.7054610848426819,
                    0.8000000715255737,
                    0,
                    0
                ],
                "metallicFactor" : 0,
                "roughnessFactor" : 0.5
            }
        },
        {
            "alphaMode" : "BLEND",
            "doubleSided" : true,
            "name" : "2",
            "pbrMetallicRoughness" : {
                "baseColorFactor" : [
                    0.00540156289935112,
                    0.8000000715255737,
                    0,
                    0
                ],
                "metallicFactor" : 0,
                "roughnessFactor" : 0.5
            }
        },
        {
            "alphaMode" : "BLEND",
            "doubleSided" : true,
            "name" : "3",
            "pbrMetallicRoughness" : {
                "baseColorFactor" : [
                    0,
                    0.8000000715255737,
                    0.31683945655822754,
                    0
                ],
                "metallicFactor" : 0,
                "roughnessFactor" : 0.5
            }
        },
        {
            "alphaMode" : "BLEND",
            "doubleSided" : true,
            "name" : "5",
            "pbrMetallicRoughness" : {
                "baseColorFactor" : [
                    0.8000000715255737,
                    0.06814931333065033,
                    0,
                    0
                ],
                "metallicFactor" : 0,
                "roughnessFactor" : 0.5
            }
        },
        {
            "alphaMode" : "BLEND",
            "doubleSided" : true,
            "name" : "4",
            "pbrMetallicRoughness" : {
                "baseColorFactor" : [
                    0.8000000715255737,
                    0.49933332204818726,
                    0,
                    0
                ],
                "metallicFactor" : 0,
                "roughnessFactor" : 0.5
            }
        },
        {
            "alphaMode" : "BLEND",
            "doubleSided" : true,
            "name" : "9",
            "pbrMetallicRoughness" : {
                "baseColorFactor" : [
                    0,
                    0.0822463408112526,
                    0.8000000715255737,
                    0
                ],
                "metallicFactor" : 0,
                "roughnessFactor" : 0.5
            }
        },
        {
            "alphaMode" : "BLEND",
            "doubleSided" : true,
            "name" : "8",
            "pbrMetallicRoughness" : {
                "baseColorFactor" : [
                    0.18406179547309875,
                    0,
                    0.8000000715255737,
                    0
                ],
                "metallicFactor" : 0,
                "roughnessFactor" : 0.5
            }
        },
        {
            "alphaMode" : "BLEND",
            "doubleSided" : true,
            "name" : "7",
            "pbrMetallicRoughness" : {
                "baseColorFactor" : [
                    0.8000000715255737,
                    0,
                    0.1735590696334839,
                    0
                ],
                "metallicFactor" : 0,
                "roughnessFactor" : 0.5
            }
        }
    ],
    "meshes" : [
        {
            "name" : "Cube.035",
            "primitives" : [
                {
                    "attributes" : {
                        "POSITION" : 0,
                        "NORMAL" : 1,
                        "TEXCOORD_0" : 2
                    },
                    "indices" : 3,
                    "material" : 0
                },
                {
                    "attributes" : {
                        "POSITION" : 4,
                        "NORMAL" : 5,
                        "TEXCOORD_0" : 6
                    },
                    "indices" : 7,
                    "material" : 1
                },
                {
                    "attributes" : {
                        "POSITION" : 8,
                        "NORMAL" : 9,
                        "TEXCOORD_0" : 10
                    },
                    "indices" : 11,
                    "material" : 2
                },
                {
                    "attributes" : {
                        "POSITION" : 12,
                        "NORMAL" : 13,
                        "TEXCOORD_0" : 14
                    },
                    "indices" : 15,
                    "material" : 3
                },
                {
                    "attributes" : {
                        "POSITION" : 16,
                        "NORMAL" : 17,
                        "TEXCOORD_0" : 18
                    },
                    "indices" : 19,
                    "material" : 4
                },
                {
                    "attributes" : {
                        "POSITION" : 20,
                        "NORMAL" : 21,
                        "TEXCOORD_0" : 22
                    },
                    "indices" : 23,
                    "material" : 5
                },
                {
                    "attributes" : {
                        "POSITION" : 24,
                        "NORMAL" : 25,
                        "TEXCOORD_0" : 26
                    },
                    "indices" : 27,
                    "material" : 6
                },
                {
                    "attributes" : {
                        "POSITION" : 28,
                        "NORMAL" : 29,
                        "TEXCOORD_0" : 30
                    },
                    "indices" : 31,
                    "material" : 7
                },
                {
                    "attributes" : {
                        "POSITION" : 32,
                        "NORMAL" : 33,
                        "TEXCOORD_0" : 34
                    },
                    "indices" : 35,
                    "material" : 8
                }
            ]
        }
    ],
    "accessors" : [
        {
            "bufferView" : 0,
            "componentType" : 5126,
            "count" : 38,
            "max" : [
                3.0198023319244385,
                -1.4801974296569824,
                3.0198023319244385
            ],
            "min" : [
                -2.9801979064941406,
                -2.4801981449127197,
                -2.9801979064941406
            ],
            "type" : "VEC3"
        },
        {
            "bufferView" : 1,
            "componentType" : 5126,
            "count" : 38,
            "type" : "VEC3"
        },
        {
            "bufferView" : 2,
            "componentType" : 5126,
            "count" : 38,
            "type" : "VEC2"
        },
        {
            "bufferView" : 3,
            "componentType" : 5123,
            "count" : 72,
            "type" : "SCALAR"
        },
        {
            "bufferView" : 4,
            "componentType" : 5126,
            "count" : 74,
            "max" : [
                -0.9801969528198242,
                3.0198018550872803,
                3.0198023319244385
            ],
            "min" : [
                -2.9801979064941406,
                -2.9801981449127197,
                -2.9801979064941406
            ],
            "type" : "VEC3"
        },
        {
            "bufferView" : 5,
            "componentType" : 5126,
            "count" : 74,
            "type" : "VEC3"
        },
        {
            "bufferView" : 6,
            "componentType" : 5126,
            "count" : 74,
            "type" : "VEC2"
        },
        {
            "bufferView" : 7,
            "componentType" : 5123,
            "count" : 126,
            "type" : "SCALAR"
        },
        {
            "bufferView" : 8,
            "componentType" : 5126,
            "count" : 72,
            "max" : [
                1.0198030471801758,
                3.0198018550872803,
                3.0198023319244385
            ],
            "min" : [
                -0.9801981449127197,
                -2.9801981449127197,
                -2.9801979064941406
            ],
            "type" : "VEC3"
        },
        {
            "bufferView" : 9,
            "componentType" : 5126,
            "count" : 72,
            "type" : "VEC3"
        },
        {
            "bufferView" : 10,
            "componentType" : 5126,
            "count" : 72,
            "type" : "VEC2"
        },
        {
            "bufferView" : 11,
            "componentType" : 5123,
            "count" : 126,
            "type" : "SCALAR"
        },
        {
            "bufferView" : 12,
            "componentType" : 5126,
            "count" : 72,
            "max" : [
                3.0198025703430176,
                3.0198018550872803,
                3.0198023319244385
            ],
            "min" : [
                1.0198018550872803,
                -2.9801981449127197,
                -2.9801979064941406
            ],
            "type" : "VEC3"
        },
        {
            "bufferView" : 13,
            "componentType" : 5126,
            "count" : 72,
            "type" : "VEC3"
        },
        {
            "bufferView" : 14,
            "componentType" : 5126,
            "count" : 72,
            "type" : "VEC2"
        },
        {
            "bufferView" : 15,
            "componentType" : 5123,
            "count" : 126,
            "type" : "SCALAR"
        },
        {
            "bufferView" : 16,
            "componentType" : 5126,
            "count" : 36,
            "max" : [
                3.0198023319244385,
                0.5198022723197937,
                3.0198023319244385
            ],
            "min" : [
                -2.9801979064941406,
                -0.4801981449127197,
                -2.9801979064941406
            ],
            "type" : "VEC3"
        },
        {
            "bufferView" : 17,
            "componentType" : 5126,
            "count" : 36,
            "type" : "VEC3"
        },
        {
            "bufferView" : 18,
            "componentType" : 5126,
            "count" : 36,
            "type" : "VEC2"
        },
        {
            "bufferView" : 19,
            "componentType" : 5123,
            "count" : 72,
            "type" : "SCALAR"
        },
        {
            "bufferView" : 20,
            "componentType" : 5126,
            "count" : 38,
            "max" : [
                3.0198023319244385,
                2.5198023319244385,
                3.0198023319244385
            ],
            "min" : [
                -2.9801979064941406,
                1.5198018550872803,
                -2.9801979064941406
            ],
            "type" : "VEC3"
        },
        {
            "bufferView" : 21,
            "componentType" : 5126,
            "count" : 38,
            "type" : "VEC3"
        },
        {
            "bufferView" : 22,
            "componentType" : 5126,
            "count" : 38,
            "type" : "VEC2"
        },
        {
            "bufferView" : 23,
            "componentType" : 5123,
            "count" : 72,
            "type" : "SCALAR"
        },
        {
            "bufferView" : 24,
            "componentType" : 5126,
            "count" : 72,
            "max" : [
                3.0198025703430176,
                3.0198018550872803,
                -0.9801973104476929
            ],
            "min" : [
                -2.9801979064941406,
                -2.9801981449127197,
                -2.9801979064941406
            ],
            "type" : "VEC3"
        },
        {
            "bufferView" : 25,
            "componentType" : 5126,
            "count" : 72,
            "type" : "VEC3"
        },
        {
            "bufferView" : 26,
            "componentType" : 5126,
            "count" : 72,
            "type" : "VEC2"
        },
        {
            "bufferView" : 27,
            "componentType" : 5123,
            "count" : 126,
            "type" : "SCALAR"
        },
        {
            "bufferView" : 28,
            "componentType" : 5126,
            "count" : 72,
            "max" : [
                3.0198023319244385,
                3.0198018550872803,
                1.0198028087615967
            ],
            "min" : [
                -2.9801979064941406,
                -2.9801981449127197,
                -0.9801980257034302
            ],
            "type" : "VEC3"
        },
        {
            "bufferView" : 29,
            "componentType" : 5126,
            "count" : 72,
            "type" : "VEC3"
        },
        {
            "bufferView" : 30,
            "componentType" : 5126,
            "count" : 72,
            "type" : "VEC2"
        },
        {
            "bufferView" : 31,
            "componentType" : 5123,
            "count" : 126,
            "type" : "SCALAR"
        },
        {
            "bufferView" : 32,
            "componentType" : 5126,
            "count" : 74,
            "max" : [
                3.0198023319244385,
                3.0198018550872803,
                3.0198023319244385
            ],
            "min" : [
                -2.9801979064941406,
                -2.9801981449127197,
                1.0198019742965698
            ],
            "type" : "VEC3"
        },
        {
            "bufferView" : 33,
            "componentType" : 5126,
            "count" : 74,
            "type" : "VEC3"
        },
        {
            "bufferView" : 34,
            "componentType" : 5126,
            "count" : 74,
            "type" : "VEC2"
        },
        {
            "bufferView" : 35,
            "componentType" : 5123,
            "count" : 126,
            "type" : "SCALAR"
        }
    ],
    "bufferViews" : [
        {
            "buffer" : 0,
            "byteLength" : 456,
            "byteOffset" : 0
        },
        {
            "buffer" : 0,
            "byteLength" : 456,
            "byteOffset" : 456
        },
        {
            "buffer" : 0,
            "byteLength" : 304,
            "byteOffset" : 912
        },
        {
            "buffer" : 0,
            "byteLength" : 144,
            "byteOffset" : 1216
        },
        {
            "buffer" : 0,
            "byteLength" : 888,
            "byteOffset" : 1360
        },
        {
            "buffer" : 0,
            "byteLength" : 888,
            "byteOffset" : 2248
        },
        {
            "buffer" : 0,
            "byteLength" : 592,
            "byteOffset" : 3136
        },
        {
            "buffer" : 0,
            "byteLength" : 252,
            "byteOffset" : 3728
        },
        {
            "buffer" : 0,
            "byteLength" : 864,
            "byteOffset" : 3980
        },
        {
            "buffer" : 0,
            "byteLength" : 864,
            "byteOffset" : 4844
        },
        {
            "buffer" : 0,
            "byteLength" : 576,
            "byteOffset" : 5708
        },
        {
            "buffer" : 0,
            "byteLength" : 252,
            "byteOffset" : 6284
        },
        {
            "buffer" : 0,
            "byteLength" : 864,
            "byteOffset" : 6536
        },
        {
            "buffer" : 0,
            "byteLength" : 864,
            "byteOffset" : 7400
        },
        {
            "buffer" : 0,
            "byteLength" : 576,
            "byteOffset" : 8264
        },
        {
            "buffer" : 0,
            "byteLength" : 252,
            "byteOffset" : 8840
        },
        {
            "buffer" : 0,
            "byteLength" : 432,
            "byteOffset" : 9092
        },
        {
            "buffer" : 0,
            "byteLength" : 432,
            "byteOffset" : 9524
        },
        {
            "buffer" : 0,
            "byteLength" : 288,
            "byteOffset" : 9956
        },
        {
            "buffer" : 0,
            "byteLength" : 144,
            "byteOffset" : 10244
        },
        {
            "buffer" : 0,
            "byteLength" : 456,
            "byteOffset" : 10388
        },
        {
            "buffer" : 0,
            "byteLength" : 456,
            "byteOffset" : 10844
        },
        {
            "buffer" : 0,
            "byteLength" : 304,
            "byteOffset" : 11300
        },
        {
            "buffer" : 0,
            "byteLength" : 144,
            "byteOffset" : 11604
        },
        {
            "buffer" : 0,
            "byteLength" : 864,
            "byteOffset" : 11748
        },
        {
            "buffer" : 0,
            "byteLength" : 864,
            "byteOffset" : 12612
        },
        {
            "buffer" : 0,
            "byteLength" : 576,
            "byteOffset" : 13476
        },
        {
            "buffer" : 0,
            "byteLength" : 252,
            "byteOffset" : 14052
        },
        {
            "buffer" : 0,
            "byteLength" : 864,
            "byteOffset" : 14304
        },
        {
            "buffer" : 0,
            "byteLength" : 864,
            "byteOffset" : 15168
        },
        {
            "buffer" : 0,
            "byteLength" : 576,
            "byteOffset" : 16032
        },
        {
            "buffer" : 0,
            "byteLength" : 252,
            "byteOffset" : 16608
        },
        {
            "buffer" : 0,
            "byteLength" : 888,
            "byteOffset" : 16860
        },
        {
            "buffer" : 0,
            "byteLength" : 888,
            "byteOffset" : 17748
        },
        {
            "buffer" : 0,
            "byteLength" : 592,
            "byteOffset" : 18636
        },
        {
            "buffer" : 0,
            "byteLength" : 252,
            "byteOffset" : 19228
        }
    ],
    "buffers" : [
        {
            "byteLength" : 19480,
            "uri" : "data:application/octet-stream;base64,"
        }
    ]
}
