<?xml version="1.0" encoding="UTF-8" standalone="no"?>
<!-- Created with Inkscape (http://www.inkscape.org/) -->

<svg
   width="42.635139mm"
   height="39.69038mm"
   viewBox="0 0 42.635139 39.69038"
   version="1.1"
   id="svg5"
   inkscape:version="1.2.1 (9c6d41e410, 2022-07-14)"
   sodipodi:docname="light_dark.svg"
   xmlns:inkscape="http://www.inkscape.org/namespaces/inkscape"
   xmlns:sodipodi="http://sodipodi.sourceforge.net/DTD/sodipodi-0.dtd"
   xmlns="http://www.w3.org/2000/svg"
   xmlns:svg="http://www.w3.org/2000/svg">
  <sodipodi:namedview
     id="namedview7"
     pagecolor="#ffffff"
     bordercolor="#000000"
     borderopacity="0.25"
     inkscape:showpageshadow="2"
     inkscape:pageopacity="0.0"
     inkscape:pagecheckerboard="0"
     inkscape:deskcolor="#d1d1d1"
     inkscape:document-units="mm"
     showgrid="false"
     inkscape:zoom="2.5247521"
     inkscape:cx="45.945104"
     inkscape:cy="53.866674"
     inkscape:window-width="2560"
     inkscape:window-height="1377"
     inkscape:window-x="1912"
     inkscape:window-y="-8"
     inkscape:window-maximized="1"
     inkscape:current-layer="layer1" />
  <defs
     id="defs2" />
  <g
     inkscape:label="Ebene 1"
     inkscape:groupmode="layer"
     id="layer1"
     transform="translate(-62.949646,-123.71865)">
    <circle
       style="fill:#000000;stroke-width:0.264583"
       id="path111"
       cx="91.441612"
       cy="138.57036"
       r="7.1137724" />
    <rect
       style="fill:#000000;stroke-width:0.374177"
       id="rect165"
       width="0.74101794"
       height="7.4101796"
       x="91.071106"
       y="123.71865"
       ry="0.37050897" />
    <rect
       style="fill:#000000;stroke-width:0.374177"
       id="rect275"
       width="0.74101794"
       height="7.4101796"
       x="155.05693"
       y="43.506035"
       ry="0.37050897"
       transform="rotate(36)" />
    <rect
       style="fill:#000000;stroke-width:0.374177"
       id="rect279"
       width="0.74101794"
       height="7.4101796"
       x="159.67474"
       y="-58.99725"
       ry="0.37050897"
       transform="rotate(72)" />
    <rect
       style="fill:#000000;stroke-width:0.374177"
       id="rect281"
       width="0.74101794"
       height="7.4101796"
       x="103.16073"
       y="-144.63844"
       ry="0.37050897"
       transform="rotate(108)" />
    <rect
       style="fill:#000000;stroke-width:0.374177"
       id="rect283"
       width="0.74101794"
       height="7.4101796"
       x="91.071106"
       y="123.71865"
       ry="0.37050897" />
    <rect
       style="fill:#000000;stroke-width:0.232116"
       id="rect285"
       width="0.74101794"
       height="2.8515637"
       x="-91.812096"
       y="-148.86345"
       ry="0.14257818"
       transform="scale(-1)" />
    <rect
       style="fill:#000000;stroke-width:0.374177"
       id="rect291"
       width="0.74101794"
       height="7.4101796"
       x="7.1012988"
       y="-180.70551"
       ry="0.37050897"
       transform="rotate(144)" />
    <rect
       style="fill:#000000;stroke-width:0.374177"
       id="rect293"
       width="0.74101794"
       height="7.4101796"
       x="-103.90173"
       y="114.93501"
       ry="0.37050897"
       transform="rotate(-72)" />
    <rect
       style="fill:#000000;stroke-width:0.374177"
       id="rect295"
       width="0.74101794"
       height="7.4101796"
       x="-7.8422966"
       y="151.00208"
       ry="0.37050897"
       transform="rotate(-36)" />
    <path
       id="path363"
       style="fill:#000000;stroke-width:0.264583"
       d="m 72.219881,140.25552 a 11.15232,11.15232 0 0 0 -9.270235,10.98641 11.15232,11.15232 0 0 0 11.152291,11.15229 11.15232,11.15232 0 0 0 10.355957,-7.01921 9.3738766,9.3738766 0 0 1 -6.984587,3.12901 9.3738766,9.3738766 0 0 1 -9.373588,-9.3741 9.3738766,9.3738766 0 0 1 4.814693,-8.17987 z" />
    <rect
       style="fill:#000000;stroke-width:0.264583"
       id="rect422"
       width="2.6845529"
       height="49.904488"
       x="-45.663013"
       y="136.06328"
       ry="0.91619152"
       transform="rotate(-45)" />
  </g>
</svg>
