<?xml version="1.0" encoding="UTF-8" standalone="no"?>
<!-- Created with Inkscape (http://www.inkscape.org/) -->

<svg
   width="40.903358mm"
   height="33.494125mm"
   viewBox="0 0 40.903358 33.494125"
   version="1.1"
   id="svg5"
   inkscape:version="1.2.1 (9c6d41e410, 2022-07-14)"
   sodipodi:docname="random_dice.svg"
   xmlns:inkscape="http://www.inkscape.org/namespaces/inkscape"
   xmlns:sodipodi="http://sodipodi.sourceforge.net/DTD/sodipodi-0.dtd"
   xmlns="http://www.w3.org/2000/svg"
   xmlns:svg="http://www.w3.org/2000/svg">
  <sodipodi:namedview
     id="namedview7"
     pagecolor="#ffffff"
     bordercolor="#000000"
     borderopacity="0.25"
     inkscape:showpageshadow="2"
     inkscape:pageopacity="0.0"
     inkscape:pagecheckerboard="0"
     inkscape:deskcolor="#d1d1d1"
     inkscape:document-units="mm"
     showgrid="false"
     inkscape:zoom="2.9581427"
     inkscape:cx="-20.621047"
     inkscape:cy="119.33163"
     inkscape:window-width="2560"
     inkscape:window-height="1377"
     inkscape:window-x="1912"
     inkscape:window-y="-8"
     inkscape:window-maximized="1"
     inkscape:current-layer="layer1" />
  <defs
     id="defs2" />
  <g
     inkscape:label="Ebene 1"
     inkscape:groupmode="layer"
     id="layer1"
     transform="translate(-80.142481,-113.59188)">
    <path
       id="path111"
       style="fill:#000000;stroke-width:0.264583"
       d="m 105.20146,114.16251 a 16.747005,16.747005 0 0 0 -8.669054,7e-5 16.747005,16.747005 0 0 0 -7.6496,4.48738 l 4.018348,2.32004 a 12.300899,12.300899 0 0 1 4.782062,-2.51282 12.300899,12.300899 0 0 1 14.950964,8.3358 l 4.58925,-2.6e-4 a 16.747005,16.747005 0 0 0 -0.18042,-0.78824 16.747005,16.747005 0 0 0 -11.84155,-11.84197 z m 5.32717,23.78694 a 12.300899,12.300899 0 0 1 -6.47782,4.27118 12.300899,12.300899 0 0 1 -15.065839,-8.69774 12.300899,12.300899 0 0 1 -0.18231,-0.83905 l -4.508393,1e-5 a 16.747005,16.747005 0 0 0 0.396105,1.98985 16.747005,16.747005 0 0 0 20.511247,11.84153 16.747005,16.747005 0 0 0 9.20731,-6.32553 z" />
    <path
       id="rect506"
       style="fill:#000000;stroke-width:0.421719"
       d="m 86.5537,125.88156 6.411218,8.20557 H 80.142481 Z"
       sodipodi:nodetypes="cccc" />
    <path
       id="path558"
       style="fill:#000000;stroke-width:0.421719"
       d="m 114.63462,134.08713 6.41122,-8.20557 H 108.2234 Z"
       sodipodi:nodetypes="cccc" />
    <path
       id="rect612"
       style="fill:#000000;stroke-width:0.183708"
       d="m 100.75871,120.82954 c -0.37935,0 -0.758716,0.14523 -1.049398,0.43591 l -8.023967,8.02397 c -0.581364,0.58136 -0.58136,1.51742 3e-6,2.09879 l 8.023964,8.02396 c 0.581368,0.58136 1.517428,0.58137 2.098788,0 l 8.02397,-8.02396 c 0.58136,-0.58137 0.58136,-1.51743 0,-2.09879 l -8.02397,-8.02397 c -0.29068,-0.29068 -0.67004,-0.43591 -1.04939,-0.43591 z m 0,2.30181 c 0.28753,0 0.57516,0.11049 0.79548,0.3308 l 6.08173,6.08118 c 0.44064,0.44063 0.44064,1.15033 0,1.59096 l -6.08173,6.08173 c -0.44063,0.44064 -1.15033,0.44064 -1.590961,1e-5 l -6.081179,-6.08174 c -0.440632,-0.44063 -0.440634,-1.15032 10e-7,-1.59096 l 6.081177,-6.08118 c 0.220322,-0.22031 0.507952,-0.33081 0.795482,-0.3308 z" />
    <circle
       style="fill:#000000;stroke-width:0.153053"
       id="path785"
       cx="130.33885"
       cy="-100.75871"
       r="1.4634131"
       transform="rotate(90)" />
    <circle
       style="fill:#000000;stroke-width:0.153053"
       id="circle787"
       cx="100.75871"
       cy="126.94011"
       r="1.4634131" />
    <circle
       style="fill:#000000;stroke-width:0.153053"
       id="circle789"
       cx="100.75871"
       cy="133.73759"
       r="1.4634131" />
    <circle
       style="fill:#000000;stroke-width:0.153053"
       id="circle791"
       cx="130.33885"
       cy="-104.15747"
       r="1.4634131"
       transform="rotate(90)" />
    <circle
       style="fill:#000000;stroke-width:0.153053"
       id="circle793"
       cx="130.33885"
       cy="-97.359978"
       r="1.4634131"
       transform="rotate(90)" />
  </g>
</svg>
