<?xml version="1.0" encoding="UTF-8"?>
<!-- Created with Inkscape (http://www.inkscape.org/) -->
<svg width="39.979mm" height="40.306mm" version="1.1" viewBox="0 0 39.979 40.306" xmlns="http://www.w3.org/2000/svg">
 <g transform="translate(-36.338 -73.901)">
  <path d="m56.328 78.807a15.248 15.248 0 0 0-15.248 15.248 15.248 15.248 0 0 0 15.248 15.248 15.248 15.248 0 0 0 15.248-15.248 15.248 15.248 0 0 0-15.248-15.248zm-0.2527 6.8022a8.4491 8.4491 0 0 1 8.6553 7.5623 8.4491 8.4491 0 0 1-7.5194 9.2857 8.4491 8.4491 0 0 1-9.2863-7.5194 8.4491 8.4491 0 0 1 7.52-9.2857 8.4491 8.4491 0 0 1 0.63045-0.04289z" stroke-width=".26458"/>
  <g transform="translate(3.5401 1.5497)">
   <g transform="translate(.55)" stroke-width=".26458">
    <path d="m50.124 72.352h2.6723v6.052h-4.3228z"/>
    <path d="m54.351 72.352h-2.6723v6.052h4.3228z"/>
   </g>
  </g>
  <g transform="rotate(36 52.173 98.674)">
   <g transform="translate(.55)" stroke-width=".26458">
    <path d="m50.124 72.352h2.6723v6.052h-4.3228z"/>
    <path d="m54.351 72.352h-2.6723v6.052h4.3228z"/>
   </g>
  </g>
  <g transform="rotate(72 53.46 95.657)">
   <g transform="translate(.55)" stroke-width=".26458">
    <path d="m50.124 72.352h2.6723v6.052h-4.3228z"/>
    <path d="m54.351 72.352h-2.6723v6.052h4.3228z"/>
   </g>
  </g>
  <g transform="rotate(108 53.972 94.516)">
   <g transform="translate(.55)" stroke-width=".26458">
    <path d="m50.124 72.352h2.6723v6.052h-4.3228z"/>
    <path d="m54.351 72.352h-2.6723v6.052h4.3228z"/>
   </g>
  </g>
  <g transform="rotate(144 54.229 93.779)">
   <g transform="translate(.55)" stroke-width=".26458">
    <path d="m50.124 72.352h2.6723v6.052h-4.3228z"/>
    <path d="m54.351 72.352h-2.6723v6.052h4.3228z"/>
   </g>
  </g>
  <g transform="rotate(180 54.481 93.229)">
   <g transform="translate(.55)" stroke-width=".26458">
    <path d="m50.124 72.352h2.6723v6.052h-4.3228z"/>
    <path d="m54.351 72.352h-2.6723v6.052h4.3228z"/>
   </g>
  </g>
  <g transform="rotate(216 54.731 92.659)">
   <g transform="translate(.55)" stroke-width=".26458">
    <path d="m50.124 72.352h2.6723v6.052h-4.3228z"/>
    <path d="m54.351 72.352h-2.6723v6.052h4.3228z"/>
   </g>
  </g>
  <g transform="rotate(252 55.036 91.978)">
   <g transform="translate(.55)" stroke-width=".26458">
    <path d="m50.124 72.352h2.6723v6.052h-4.3228z"/>
    <path d="m54.351 72.352h-2.6723v6.052h4.3228z"/>
   </g>
  </g>
  <g transform="rotate(-72 55.498 90.832)">
   <g transform="translate(.55)" stroke-width=".26458">
    <path d="m50.124 72.352h2.6723v6.052h-4.3228z"/>
    <path d="m54.351 72.352h-2.6723v6.052h4.3228z"/>
   </g>
  </g>
  <g transform="rotate(-36 56.74 87.929)">
   <g transform="translate(.55)" stroke-width=".26458">
    <path d="m50.124 72.352h2.6723v6.052h-4.3228z"/>
    <path d="m54.351 72.352h-2.6723v6.052h4.3228z"/>
   </g>
  </g>
 </g>
</svg>
