{
    "asset" : {
        "generator" : "Khronos glTF Blender I/O v3.2.43",
        "version" : "2.0"
    },
    "scene" : 0,
    "scenes" : [
        {
            "name" : "Scene",
            "nodes" : [
                0
            ]
        }
    ],
    "nodes" : [
        {
            "mesh" : 0,
            "name" : "Cube.009",
            "rotation" : [
                -0.4999999403953552,
                0.49999991059303284,
                0.5000001192092896,
                0.5000000596046448
            ]
        }
    ],
    "materials" : [
        {
            "doubleSided" : true,
            "name" : "black",
            "pbrMetallicRoughness" : {
                "baseColorFactor" : [
                    0,
                    0,
                    0,
                    1
                ],
                "metallicFactor" : 0,
                "metallicRoughnessTexture" : {
                    "index" : 0
                }
            }
        },
        {
            "doubleSided" : true,
            "name" : "red",
            "normalTexture" : {
                "index" : 1,
                "scale" : 0.05000000074505806
            },
            "pbrMetallicRoughness" : {
                "baseColorFactor" : [
                    1,
                    0,
                    0,
                    1
                ],
                "metallicFactor" : 0,
                "metallicRoughnessTexture" : {
                    "index" : 2
                }
            }
        },
        {
            "doubleSided" : true,
            "name" : "green",
            "normalTexture" : {
                "index" : 3,
                "scale" : 0.05000000074505806
            },
            "pbrMetallicRoughness" : {
                "baseColorFactor" : [
                    0,
                    1,
                    0,
                    1
                ],
                "metallicFactor" : 0,
                "metallicRoughnessTexture" : {
                    "index" : 4
                }
            }
        },
        {
            "doubleSided" : true,
            "name" : "white",
            "normalTexture" : {
                "index" : 5,
                "scale" : 0.05000000074505806
            },
            "pbrMetallicRoughness" : {
                "metallicFactor" : 0,
                "metallicRoughnessTexture" : {
                    "index" : 6
                }
            }
        }
    ],
    "meshes" : [
        {
            "name" : "Cube.013",
            "primitives" : [
                {
                    "attributes" : {
                        "POSITION" : 0,
                        "NORMAL" : 1,
                        "TEXCOORD_0" : 2
                    },
                    "indices" : 3,
                    "material" : 0
                },
                {
                    "attributes" : {
                        "POSITION" : 4,
                        "NORMAL" : 5,
                        "TEXCOORD_0" : 6
                    },
                    "indices" : 7,
                    "material" : 1
                },
                {
                    "attributes" : {
                        "POSITION" : 8,
                        "NORMAL" : 9,
                        "TEXCOORD_0" : 10
                    },
                    "indices" : 11,
                    "material" : 2
                },
                {
                    "attributes" : {
                        "POSITION" : 12,
                        "NORMAL" : 13,
                        "TEXCOORD_0" : 14
                    },
                    "indices" : 15,
                    "material" : 3
                }
            ]
        }
    ],
    "textures" : [
        {
            "sampler" : 0,
            "source" : 0
        },
        {
            "sampler" : 0,
            "source" : 1
        },
        {
            "sampler" : 0,
            "source" : 0
        },
        {
            "sampler" : 0,
            "source" : 1
        },
        {
            "sampler" : 0,
            "source" : 0
        },
        {
            "sampler" : 0,
            "source" : 1
        },
        {
            "sampler" : 0,
            "source" : 0
        }
    ],
    "images" : [
        {
            "bufferView" : 4,
            "mimeType" : "image/png",
            "name" : "scratches"
        },
        {
            "bufferView" : 9,
            "mimeType" : "image/jpeg",
            "name" : "boxNrm"
        }
    ],
    "accessors" : [
        {
            "bufferView" : 0,
            "componentType" : 5126,
            "count" : 636,
            "max" : [
                3.0000007152557373,
                3,
                2.999999523162842
            ],
            "min" : [
                1.0000007152557373,
                0.9999998807907104,
                0.9999994039535522
            ],
            "type" : "VEC3"
        },
        {
            "bufferView" : 1,
            "componentType" : 5126,
            "count" : 636,
            "type" : "VEC3"
        },
        {
            "bufferView" : 2,
            "componentType" : 5126,
            "count" : 636,
            "type" : "VEC2"
        },
        {
            "bufferView" : 3,
            "componentType" : 5123,
            "count" : 954,
            "type" : "SCALAR"
        },
        {
            "bufferView" : 5,
            "componentType" : 5126,
            "count" : 132,
            "max" : [
                2.836000680923462,
                3,
                2.8359994888305664
            ],
            "min" : [
                1.1640007495880127,
                2.8999998569488525,
                1.1639994382858276
            ],
            "type" : "VEC3"
        },
        {
            "bufferView" : 6,
            "componentType" : 5126,
            "count" : 132,
            "type" : "VEC3"
        },
        {
            "bufferView" : 7,
            "componentType" : 5126,
            "count" : 132,
            "type" : "VEC2"
        },
        {
            "bufferView" : 8,
            "componentType" : 5123,
            "count" : 198,
            "type" : "SCALAR"
        },
        {
            "bufferView" : 10,
            "componentType" : 5126,
            "count" : 132,
            "max" : [
                3.0000007152557373,
                2.8359999656677246,
                2.8359994888305664
            ],
            "min" : [
                2.90000057220459,
                1.1639999151229858,
                1.1639994382858276
            ],
            "type" : "VEC3"
        },
        {
            "bufferView" : 11,
            "componentType" : 5126,
            "count" : 132,
            "type" : "VEC3"
        },
        {
            "bufferView" : 12,
            "componentType" : 5126,
            "count" : 132,
            "type" : "VEC2"
        },
        {
            "bufferView" : 13,
            "componentType" : 5123,
            "count" : 198,
            "type" : "SCALAR"
        },
        {
            "bufferView" : 14,
            "componentType" : 5126,
            "count" : 132,
            "max" : [
                2.836000680923462,
                2.8359999656677246,
                2.999999523162842
            ],
            "min" : [
                1.1640007495880127,
                1.1639999151229858,
                2.8999993801116943
            ],
            "type" : "VEC3"
        },
        {
            "bufferView" : 15,
            "componentType" : 5126,
            "count" : 132,
            "type" : "VEC3"
        },
        {
            "bufferView" : 16,
            "componentType" : 5126,
            "count" : 132,
            "type" : "VEC2"
        },
        {
            "bufferView" : 17,
            "componentType" : 5123,
            "count" : 198,
            "type" : "SCALAR"
        }
    ],
    "bufferViews" : [
        {
            "buffer" : 0,
            "byteLength" : 7632,
            "byteOffset" : 0
        },
        {
            "buffer" : 0,
            "byteLength" : 7632,
            "byteOffset" : 7632
        },
        {
            "buffer" : 0,
            "byteLength" : 5088,
            "byteOffset" : 15264
        },
        {
            "buffer" : 0,
            "byteLength" : 1908,
            "byteOffset" : 20352
        },
        {
            "buffer" : 0,
            "byteLength" : 47361,
            "byteOffset" : 22260
        },
        {
            "buffer" : 0,
            "byteLength" : 1584,
            "byteOffset" : 69624
        },
        {
            "buffer" : 0,
            "byteLength" : 1584,
            "byteOffset" : 71208
        },
        {
            "buffer" : 0,
            "byteLength" : 1056,
            "byteOffset" : 72792
        },
        {
            "buffer" : 0,
            "byteLength" : 396,
            "byteOffset" : 73848
        },
        {
            "buffer" : 0,
            "byteLength" : 6299,
            "byteOffset" : 74244
        },
        {
            "buffer" : 0,
            "byteLength" : 1584,
            "byteOffset" : 80544
        },
        {
            "buffer" : 0,
            "byteLength" : 1584,
            "byteOffset" : 82128
        },
        {
            "buffer" : 0,
            "byteLength" : 1056,
            "byteOffset" : 83712
        },
        {
            "buffer" : 0,
            "byteLength" : 396,
            "byteOffset" : 84768
        },
        {
            "buffer" : 0,
            "byteLength" : 1584,
            "byteOffset" : 85164
        },
        {
            "buffer" : 0,
            "byteLength" : 1584,
            "byteOffset" : 86748
        },
        {
            "buffer" : 0,
            "byteLength" : 1056,
            "byteOffset" : 88332
        },
        {
            "buffer" : 0,
            "byteLength" : 396,
            "byteOffset" : 89388
        }
    ],
    "samplers" : [
        {
            "magFilter" : 9729,
            "minFilter" : 9987
        }
    ],
    "buffers" : [
        {
            "byteLength" : 89784,
            "uri" : "data:application/octet-stream;base64,"
        }
    ]
}
