{
    "asset" : {
        "generator" : "Khronos glTF Blender I/O v3.2.43",
        "version" : "2.0"
    },
    "scene" : 0,
    "scenes" : [
        {
            "name" : "Scene",
            "nodes" : [
                0
            ]
        }
    ],
    "nodes" : [
        {
            "mesh" : 0,
            "name" : "Cube.027",
            "rotation" : [
                0.5000000596046448,
                -0.5,
                -0.4999999701976776,
                0.5
            ]
        }
    ],
    "materials" : [
        {
            "doubleSided" : true,
            "name" : "black",
            "pbrMetallicRoughness" : {
                "baseColorFactor" : [
                    0,
                    0,
                    0,
                    1
                ],
                "metallicFactor" : 0,
                "metallicRoughnessTexture" : {
                    "index" : 0
                }
            }
        },
        {
            "doubleSided" : true,
            "name" : "blue",
            "normalTexture" : {
                "index" : 1,
                "scale" : 0.05000000074505806
            },
            "pbrMetallicRoughness" : {
                "baseColorFactor" : [
                    0,
                    0,
                    1,
                    1
                ],
                "metallicFactor" : 0,
                "metallicRoughnessTexture" : {
                    "index" : 2
                }
            }
        },
        {
            "doubleSided" : true,
            "name" : "yellow",
            "normalTexture" : {
                "index" : 3,
                "scale" : 0.05000000074505806
            },
            "pbrMetallicRoughness" : {
                "baseColorFactor" : [
                    1,
                    1,
                    0,
                    1
                ],
                "metallicFactor" : 0,
                "metallicRoughnessTexture" : {
                    "index" : 4
                }
            }
        }
    ],
    "meshes" : [
        {
            "name" : "Cube.031",
            "primitives" : [
                {
                    "attributes" : {
                        "POSITION" : 0,
                        "NORMAL" : 1,
                        "TEXCOORD_0" : 2
                    },
                    "indices" : 3,
                    "material" : 0
                },
                {
                    "attributes" : {
                        "POSITION" : 4,
                        "NORMAL" : 5,
                        "TEXCOORD_0" : 6
                    },
                    "indices" : 7,
                    "material" : 1
                },
                {
                    "attributes" : {
                        "POSITION" : 8,
                        "NORMAL" : 9,
                        "TEXCOORD_0" : 10
                    },
                    "indices" : 11,
                    "material" : 2
                }
            ]
        }
    ],
    "textures" : [
        {
            "sampler" : 0,
            "source" : 0
        },
        {
            "sampler" : 0,
            "source" : 1
        },
        {
            "sampler" : 0,
            "source" : 0
        },
        {
            "sampler" : 0,
            "source" : 1
        },
        {
            "sampler" : 0,
            "source" : 0
        }
    ],
    "images" : [
        {
            "bufferView" : 4,
            "mimeType" : "image/png",
            "name" : "scratches"
        },
        {
            "bufferView" : 9,
            "mimeType" : "image/jpeg",
            "name" : "boxNrm"
        }
    ],
    "accessors" : [
        {
            "bufferView" : 0,
            "componentType" : 5126,
            "count" : 496,
            "max" : [
                3,
                3,
                1.0000001192092896
            ],
            "min" : [
                0.9999998807907104,
                1,
                -0.9999999403953552
            ],
            "type" : "VEC3"
        },
        {
            "bufferView" : 1,
            "componentType" : 5126,
            "count" : 496,
            "type" : "VEC3"
        },
        {
            "bufferView" : 2,
            "componentType" : 5126,
            "count" : 496,
            "type" : "VEC2"
        },
        {
            "bufferView" : 3,
            "componentType" : 5123,
            "count" : 744,
            "type" : "SCALAR"
        },
        {
            "bufferView" : 5,
            "componentType" : 5126,
            "count" : 132,
            "max" : [
                2.8359999656677246,
                3,
                0.8360000252723694
            ],
            "min" : [
                1.1639999151229858,
                2.9000000953674316,
                -0.8359999060630798
            ],
            "type" : "VEC3"
        },
        {
            "bufferView" : 6,
            "componentType" : 5126,
            "count" : 132,
            "type" : "VEC3"
        },
        {
            "bufferView" : 7,
            "componentType" : 5126,
            "count" : 132,
            "type" : "VEC2"
        },
        {
            "bufferView" : 8,
            "componentType" : 5123,
            "count" : 198,
            "type" : "SCALAR"
        },
        {
            "bufferView" : 10,
            "componentType" : 5126,
            "count" : 132,
            "max" : [
                3,
                2.8359999656677246,
                0.8360000252723694
            ],
            "min" : [
                2.8999998569488525,
                1.1640000343322754,
                -0.8359999060630798
            ],
            "type" : "VEC3"
        },
        {
            "bufferView" : 11,
            "componentType" : 5126,
            "count" : 132,
            "type" : "VEC3"
        },
        {
            "bufferView" : 12,
            "componentType" : 5126,
            "count" : 132,
            "type" : "VEC2"
        },
        {
            "bufferView" : 13,
            "componentType" : 5123,
            "count" : 198,
            "type" : "SCALAR"
        }
    ],
    "bufferViews" : [
        {
            "buffer" : 0,
            "byteLength" : 5952,
            "byteOffset" : 0
        },
        {
            "buffer" : 0,
            "byteLength" : 5952,
            "byteOffset" : 5952
        },
        {
            "buffer" : 0,
            "byteLength" : 3968,
            "byteOffset" : 11904
        },
        {
            "buffer" : 0,
            "byteLength" : 1488,
            "byteOffset" : 15872
        },
        {
            "buffer" : 0,
            "byteLength" : 47361,
            "byteOffset" : 17360
        },
        {
            "buffer" : 0,
            "byteLength" : 1584,
            "byteOffset" : 64724
        },
        {
            "buffer" : 0,
            "byteLength" : 1584,
            "byteOffset" : 66308
        },
        {
            "buffer" : 0,
            "byteLength" : 1056,
            "byteOffset" : 67892
        },
        {
            "buffer" : 0,
            "byteLength" : 396,
            "byteOffset" : 68948
        },
        {
            "buffer" : 0,
            "byteLength" : 6299,
            "byteOffset" : 69344
        },
        {
            "buffer" : 0,
            "byteLength" : 1584,
            "byteOffset" : 75644
        },
        {
            "buffer" : 0,
            "byteLength" : 1584,
            "byteOffset" : 77228
        },
        {
            "buffer" : 0,
            "byteLength" : 1056,
            "byteOffset" : 78812
        },
        {
            "buffer" : 0,
            "byteLength" : 396,
            "byteOffset" : 79868
        }
    ],
    "samplers" : [
        {
            "magFilter" : 9729,
            "minFilter" : 9987
        }
    ],
    "buffers" : [
        {
            "byteLength" : 80264,
            "uri" : "data:application/octet-stream;base64,"
        }
    ]
}
